# xmcd
#
# Track frame offsets: 
#        150
#        9093
#        23040
#        43622
#        62372
#        76704
#        87181
#        103331
#        120883
#        137460
#        156444
#        169851
#        186161
#        199649
#        219956
#        240806
#        253968
#
# Disc length: 3596 seconds
#
# Revision: 0
# Processed by: cddbd v1.5.2PL0 Copyright (c) Steve Scherf et al.
# Submitted via: ExactAudioCopy v0.95b4
#
DISCID=c80e0a11
DTITLE=Thoroughbred - Choppin Up Game
DYEAR=2007
DGENRE=Rap
TTITLE0=Intro
TTITLE1=I'm Hot
TTITLE2=You Better Know Ft. Hitman
TTITLE3=Blow You Away Ft. Boo Boo Breed and Hitman
TTITLE4=Outlaw (Remix)
TTITLE5=Snakes
TTITLE6=One Chance Ft. David Carpenter
TTITLE7=Naturals
TTITLE8=Aint Know Bitches Ft. Pap Pap and Hitman
TTITLE9=I'm So Fly Ft. Focus
TTITLE10=Lock and Load
TTITLE11=Heavy Ft. Low Lyfe
TTITLE12=Boogie Juice Ft. Ms-Recka
TTITLE13=Butter
TTITLE14=What You Really Want Ft. Big Fella Bonachelli
TTITLE15=Not Right
TTITLE16=Outlaw
EXTD=
EXTT0=
EXTT1=
EXTT2=
EXTT3=
EXTT4=
EXTT5=
EXTT6=
EXTT7=
EXTT8=
EXTT9=
EXTT10=
EXTT11=
EXTT12=
EXTT13=
EXTT14=
EXTT15=
EXTT16=
PLAYORDER=
